# This file uses centimeters as units for non-parametric coordinates.

mtllib EgressPipe_01.mtl
g default
v 84.251244 209.355652 -306.279755
v 64.483131 209.355652 -335.864838
v 34.898029 209.355652 -355.632996
v 0.000087 209.355652 -362.574646
v -34.897930 209.355652 -355.633026
v -64.483040 209.355652 -335.864899
v -84.251167 209.355652 -306.279816
v -91.192841 209.355652 -271.381836
v -84.251167 209.355652 -236.483841
v -64.483040 209.355652 -206.898743
v -34.897976 209.355652 -187.130615
v 0.000022 209.355652 -180.188965
v 34.898018 209.355652 -187.130600
v 64.483101 209.355652 -206.898727
v 84.251221 209.355652 -236.483810
v 91.192841 209.355652 -271.381805
v 76.020042 777.375732 -302.870270
v 58.183239 777.375732 -329.564941
v 31.488579 777.375732 -347.401794
v 0.000087 777.375732 -353.665253
v -31.488449 777.375732 -347.401794
v -58.183144 777.375732 -329.565002
v -76.019966 777.375732 -302.870331
v -82.283401 777.375732 -271.381836
v -76.019989 777.375732 -239.893311
v -58.183163 777.375732 -213.198639
v -31.488493 777.375732 -195.361816
v 0.000022 777.375732 -189.098358
v 31.488514 777.375732 -195.361816
v 58.183186 777.375732 -213.198624
v 76.020020 777.375732 -239.893295
v 82.283463 777.375732 -271.381805
v 34.898018 247.808975 -187.130600
v 0.000022 247.808975 -180.188965
v -34.897976 247.808975 -187.130615
v -64.483040 247.808975 -206.898743
v -84.251167 247.808975 -236.483841
v -91.192841 247.808975 -271.381836
v -84.251167 247.808975 -306.279816
v -64.483040 247.808975 -335.864929
v -34.897930 247.808975 -355.633026
v 0.000087 247.808975 -362.574646
v 34.898029 247.808975 -355.632996
v 64.483131 247.808975 -335.864838
v 84.251244 247.808975 -306.279755
v 91.192841 247.808975 -271.381805
v 84.251221 247.808975 -236.483810
v 64.483116 247.808975 -206.898727
v 31.488514 249.742050 -195.361816
v 0.000022 249.742050 -189.098358
v -31.488493 249.742050 -195.361816
v -58.183163 249.742050 -213.198639
v -76.019989 249.742050 -239.893311
v -82.283401 249.742050 -271.381836
v -76.019966 249.742050 -302.870361
v -58.183144 249.742050 -329.565002
v -31.488449 249.742050 -347.401794
v 0.000087 249.742050 -353.665253
v 31.488579 249.742050 -347.401794
v 58.183239 249.742050 -329.564972
v 76.020042 249.742050 -302.870270
v 82.283463 249.742050 -271.381805
v 76.020020 249.742050 -239.893295
v 58.183186 249.742050 -213.198624
v 67.182877 209.355652 -299.209808
v 51.419567 209.355652 -322.801270
v 27.828085 209.355652 -338.564606
v 0.000087 209.355652 -344.099976
v -27.827999 209.355652 -338.564636
v -51.419445 209.355652 -322.801331
v -67.182747 209.355652 -299.209869
v -72.718147 209.355652 -271.381836
v -67.182816 209.355652 -243.553802
v -51.419491 209.355652 -219.962311
v -27.828064 209.355652 -204.198975
v 0.000022 209.355652 -198.663635
v 27.828053 209.355652 -204.198975
v 51.419544 209.355652 -219.962296
v 67.182861 209.355652 -243.553772
v 72.718201 209.355652 -271.381805
v 67.182877 777.375732 -299.209808
v 51.419533 777.375732 -322.801239
v 27.828085 777.375732 -338.564575
v 0.000076 777.375732 -344.100067
v -27.827955 777.375732 -338.564667
v -51.419338 777.375732 -322.801239
v -67.182709 777.375732 -299.209839
v -72.718147 777.375732 -271.381836
v -67.182861 777.375732 -243.553772
v -51.419556 777.375732 -219.962280
v -27.828064 777.375732 -204.198792
v 0.000022 777.375732 -198.663315
v 27.828053 777.375732 -204.198914
v 51.419456 777.375732 -219.962387
v 67.182823 777.375732 -243.553787
v 72.718224 777.375732 -271.381805
vt 0.375000 0.312500
vt 0.390625 0.312500
vt 0.406250 0.312500
vt 0.421875 0.312500
vt 0.437500 0.312500
vt 0.453125 0.312500
vt 0.468750 0.312500
vt 0.484375 0.312500
vt 0.500000 0.312500
vt 0.515625 0.312500
vt 0.531250 0.312500
vt 0.546875 0.312500
vt 0.562500 0.312500
vt 0.578125 0.312500
vt 0.593750 0.312500
vt 0.609375 0.312500
vt 0.625000 0.312500
vt 0.375000 0.688440
vt 0.390625 0.688440
vt 0.406250 0.688440
vt 0.421875 0.688440
vt 0.437500 0.688440
vt 0.453125 0.688440
vt 0.468750 0.688440
vt 0.484375 0.688440
vt 0.500000 0.688440
vt 0.515625 0.688440
vt 0.531250 0.688440
vt 0.546875 0.688440
vt 0.562500 0.688440
vt 0.578125 0.688440
vt 0.593750 0.688440
vt 0.609375 0.688440
vt 0.625000 0.688440
vt 0.562500 0.376901
vt 0.546875 0.376901
vt 0.531250 0.376901
vt 0.515625 0.376901
vt 0.500000 0.376901
vt 0.484375 0.376901
vt 0.468750 0.376901
vt 0.453125 0.376901
vt 0.437500 0.376901
vt 0.421875 0.376901
vt 0.406250 0.376901
vt 0.390625 0.376901
vt 0.625000 0.376901
vt 0.375000 0.376901
vt 0.609375 0.376901
vt 0.593750 0.376901
vt 0.578125 0.376901
vt 0.562500 0.380138
vt 0.546875 0.380138
vt 0.531250 0.380138
vt 0.515625 0.380138
vt 0.500000 0.380138
vt 0.484375 0.380138
vt 0.468750 0.380138
vt 0.453125 0.380138
vt 0.437500 0.380138
vt 0.421875 0.380138
vt 0.406250 0.380138
vt 0.390625 0.380138
vt 0.625000 0.380138
vt 0.375000 0.380138
vt 0.609375 0.380138
vt 0.593750 0.380138
vt 0.578125 0.380138
vt 0.000000 0.000000
vt 1.000000 0.000000
vt 1.000000 1.000000
vt 0.000000 1.000000
vt 0.000000 0.000000
vt 1.000000 0.000000
vt 1.000000 1.000000
vt 0.000000 1.000000
vt 0.000000 0.000000
vt 1.000000 0.000000
vt 1.000000 1.000000
vt 0.000000 1.000000
vt 0.000000 0.000000
vt 1.000000 0.000000
vt 1.000000 1.000000
vt 0.000000 1.000000
vt 0.000000 0.000000
vt 1.000000 0.000000
vt 1.000000 1.000000
vt 0.000000 1.000000
vt 0.000000 0.000000
vt 1.000000 0.000000
vt 1.000000 1.000000
vt 0.000000 1.000000
vt 0.000000 0.000000
vt 1.000000 0.000000
vt 1.000000 1.000000
vt 0.000000 1.000000
vt 0.000000 0.000000
vt 1.000000 0.000000
vt 1.000000 1.000000
vt 0.000000 1.000000
vt 0.000000 0.000000
vt 1.000000 0.000000
vt 1.000000 1.000000
vt 0.000000 1.000000
vt 0.000000 0.000000
vt 1.000000 0.000000
vt 1.000000 1.000000
vt 0.000000 1.000000
vt 0.000000 0.000000
vt 1.000000 0.000000
vt 1.000000 1.000000
vt 0.000000 1.000000
vt 0.000000 0.000000
vt 1.000000 0.000000
vt 1.000000 1.000000
vt 0.000000 1.000000
vt 0.000000 0.000000
vt 1.000000 0.000000
vt 1.000000 1.000000
vt 0.000000 1.000000
vt 0.000000 0.000000
vt 1.000000 0.000000
vt 1.000000 1.000000
vt 0.000000 1.000000
vt 0.000000 0.000000
vt 1.000000 0.000000
vt 1.000000 1.000000
vt 0.000000 1.000000
vt 0.000000 0.000000
vt 1.000000 0.000000
vt 1.000000 1.000000
vt 0.000000 1.000000
vt 0.000000 0.000000
vt 1.000000 0.000000
vt 1.000000 1.000000
vt 0.000000 1.000000
vt 0.000000 0.000000
vt 1.000000 0.000000
vt 1.000000 1.000000
vt 0.000000 1.000000
vt 0.000000 0.000000
vt 1.000000 0.000000
vt 1.000000 1.000000
vt 0.000000 1.000000
vt 0.000000 0.000000
vt 1.000000 0.000000
vt 1.000000 1.000000
vt 0.000000 1.000000
vt 0.000000 0.000000
vt 1.000000 0.000000
vt 1.000000 1.000000
vt 0.000000 1.000000
vt 0.000000 0.000000
vt 1.000000 0.000000
vt 1.000000 1.000000
vt 0.000000 1.000000
vt 0.000000 0.000000
vt 1.000000 0.000000
vt 1.000000 1.000000
vt 0.000000 1.000000
vt 0.000000 0.000000
vt 1.000000 0.000000
vt 1.000000 1.000000
vt 0.000000 1.000000
vt 0.000000 0.000000
vt 1.000000 0.000000
vt 1.000000 1.000000
vt 0.000000 1.000000
vt 0.000000 0.000000
vt 1.000000 0.000000
vt 1.000000 1.000000
vt 0.000000 1.000000
vt 0.000000 0.000000
vt 1.000000 0.000000
vt 1.000000 1.000000
vt 0.000000 1.000000
vt 0.000000 0.000000
vt 1.000000 0.000000
vt 1.000000 1.000000
vt 0.000000 1.000000
vt 0.000000 0.000000
vt 1.000000 0.000000
vt 1.000000 1.000000
vt 0.000000 1.000000
vt 0.000000 0.000000
vt 1.000000 0.000000
vt 1.000000 1.000000
vt 0.000000 1.000000
vt 0.000000 0.000000
vt 1.000000 0.000000
vt 1.000000 1.000000
vt 0.000000 1.000000
vt 0.000000 0.000000
vt 1.000000 0.000000
vt 1.000000 1.000000
vt 0.000000 1.000000
vn 0.923880 0.000000 -0.382683
vn 0.707107 0.000000 -0.707107
vn 0.695225 0.182549 -0.695225
vn 0.908355 0.182549 -0.376253
vn 0.382684 0.000000 -0.923879
vn 0.376254 0.182549 -0.908355
vn 0.000000 0.000000 -1.000000
vn 0.000000 0.182550 -0.983197
vn -0.382683 -0.000000 -0.923880
vn -0.376252 0.182550 -0.908356
vn -0.707107 -0.000000 -0.707107
vn -0.695225 0.182549 -0.695225
vn -0.923879 -0.000000 -0.382684
vn -0.908355 0.182550 -0.376253
vn -1.000000 0.000000 0.000000
vn -0.983197 0.182550 0.000000
vn -0.923879 0.000000 0.382684
vn -0.908355 0.182549 0.376253
vn -0.707107 0.000000 0.707106
vn -0.695225 0.182549 0.695225
vn -0.382684 0.000000 0.923880
vn -0.376253 0.182549 0.908355
vn -0.000000 0.000000 1.000000
vn -0.000000 0.182550 0.983197
vn 0.382683 -0.000000 0.923880
vn 0.376253 0.182550 0.908355
vn 0.707107 -0.000000 0.707107
vn 0.695225 0.182550 0.695225
vn 0.923880 -0.000000 0.382683
vn 0.908355 0.182550 0.376253
vn 1.000000 0.000000 0.000000
vn 0.983197 0.182550 0.000000
vn 0.382608 0.019883 0.923697
vn 0.000000 0.019883 0.999802
vn -0.382608 0.019883 0.923697
vn -0.706967 0.019883 0.706967
vn -0.923697 0.019883 0.382608
vn -0.999802 0.019883 -0.000000
vn -0.923697 0.019883 -0.382608
vn -0.706966 0.019883 -0.706968
vn -0.382607 0.019883 -0.923697
vn 0.000000 0.019883 -0.999802
vn 0.382608 0.019883 -0.923697
vn 0.706967 0.019883 -0.706967
vn 0.923697 0.019883 -0.382607
vn 0.999802 0.019883 0.000000
vn 0.923697 0.019883 0.382608
vn 0.706967 0.019883 0.706967
vn 0.382684 0.000000 0.923880
vn 0.000000 0.000000 1.000000
vn -0.382684 0.000000 0.923879
vn -0.707107 0.000000 0.707107
vn -0.923880 0.000000 0.382683
vn -1.000000 0.000000 -0.000000
vn -0.923880 0.000000 -0.382683
vn -0.707106 0.000000 -0.707108
vn -0.382683 0.000000 -0.923880
vn 0.000000 0.000000 -1.000000
vn 0.382684 0.000000 -0.923879
vn 0.707107 0.000000 -0.707106
vn 0.923880 0.000000 -0.382683
vn 1.000000 0.000000 0.000000
vn 0.923879 0.000000 0.382684
vn 0.707107 0.000000 0.707107
vn 0.000000 -1.000000 0.000000
vn 0.000000 -1.000000 0.000000
vn 0.000000 -1.000000 0.000000
vn 0.000000 -1.000000 0.000000
vn 0.000000 -1.000000 0.000000
vn 0.000000 -1.000000 0.000000
vn 0.000000 -1.000000 0.000000
vn 0.000000 -1.000000 0.000000
vn 0.000000 -1.000000 0.000000
vn 0.000000 -1.000000 0.000000
vn 0.000000 -1.000000 -0.000000
vn 0.000000 -1.000000 -0.000000
vn 0.000000 -1.000000 -0.000000
vn 0.000000 -1.000000 -0.000000
vn 0.000000 -1.000000 -0.000000
vn 0.000000 -1.000000 -0.000000
vn 0.000000 -1.000000 0.000000
vn 0.000000 -1.000000 0.000000
vn 0.000000 -1.000000 0.000000
vn 0.000000 -1.000000 0.000000
vn 0.000000 -1.000000 0.000000
vn 0.000000 -1.000000 0.000000
vn 0.000000 -1.000000 -0.000000
vn 0.000000 -1.000000 -0.000000
vn 0.000000 -1.000000 -0.000001
vn 0.000000 -1.000000 -0.000001
vn 0.000000 -1.000000 -0.000000
vn 0.000000 -1.000000 -0.000000
vn 0.000000 -1.000000 0.000000
vn 0.000000 -1.000000 0.000000
vn 0.000000 -1.000000 0.000000
vn 0.000000 -1.000000 0.000000
vn -0.707107 -0.000000 0.707107
vn -0.923880 -0.000000 0.382684
vn -0.923880 -0.000000 0.382684
vn -0.707107 -0.000000 0.707107
vn -0.382685 -0.000000 0.923879
vn -0.382685 -0.000000 0.923879
vn -0.000001 0.000000 1.000000
vn -0.000001 0.000000 1.000000
vn 0.382685 -0.000000 0.923879
vn 0.382685 -0.000000 0.923879
vn 0.707107 -0.000000 0.707106
vn 0.707107 -0.000000 0.707106
vn 0.923879 -0.000000 0.382685
vn 0.923879 -0.000000 0.382685
vn 1.000000 -0.000000 0.000002
vn 1.000000 -0.000000 0.000002
vn 0.923880 0.000000 -0.382683
vn 0.923880 0.000000 -0.382683
vn 0.707108 0.000000 -0.707106
vn 0.707108 0.000000 -0.707106
vn 0.382686 0.000000 -0.923879
vn 0.382686 0.000000 -0.923879
vn -0.000001 0.000000 -1.000000
vn -0.000001 0.000000 -1.000000
vn -0.382687 0.000000 -0.923878
vn -0.382687 0.000000 -0.923878
vn -0.707107 -0.000000 -0.707106
vn -0.707107 -0.000000 -0.707106
vn -0.923879 -0.000000 -0.382685
vn -0.923879 -0.000000 -0.382685
vn -1.000000 -0.000000 -0.000001
vn -1.000000 -0.000000 -0.000001
vn 0.000000 1.000000 -0.000005
vn 0.000000 1.000000 -0.000005
vn 0.000000 1.000000 -0.000005
vn 0.000000 1.000000 -0.000005
vn 0.000000 1.000000 -0.000003
vn 0.000000 1.000000 -0.000003
vn 0.000000 1.000000 -0.000003
vn 0.000000 1.000000 -0.000003
vn 0.000000 1.000000 -0.000002
vn 0.000000 1.000000 -0.000002
vn 0.000000 1.000000 -0.000002
vn 0.000000 1.000000 -0.000002
vn 0.000000 1.000000 0.000003
vn 0.000000 1.000000 0.000003
vn 0.000000 1.000000 0.000003
vn 0.000000 1.000000 0.000003
vn 0.000000 1.000000 0.000000
vn 0.000000 1.000000 0.000000
vn 0.000000 1.000000 0.000000
vn 0.000000 1.000000 0.000000
vn 0.000000 1.000000 0.000000
vn 0.000000 1.000000 0.000000
vn 0.000000 1.000000 0.000000
vn 0.000000 1.000000 0.000000
vn 0.000000 1.000000 0.000002
vn 0.000000 1.000000 0.000002
vn 0.000000 1.000000 0.000002
vn 0.000000 1.000000 0.000002
vn 0.000000 1.000000 0.000003
vn 0.000000 1.000000 0.000003
vn 0.000000 1.000000 0.000003
vn 0.000000 1.000000 0.000003
vn 0.000000 1.000000 -0.000005
vn 0.000000 1.000000 -0.000005
vn 0.000000 1.000000 -0.000005
vn 0.000000 1.000000 -0.000005
vn 0.000000 1.000000 -0.000003
vn 0.000000 1.000000 -0.000003
vn 0.000000 1.000000 -0.000003
vn 0.000000 1.000000 -0.000003
vn 0.000000 1.000000 0.000000
vn 0.000000 1.000000 0.000000
vn 0.000000 1.000000 0.000000
vn 0.000000 1.000000 0.000000
vn 0.000000 1.000000 0.000003
vn 0.000000 1.000000 0.000003
vn 0.000000 1.000000 0.000003
vn 0.000000 1.000000 0.000003
vn 0.000000 1.000000 -0.000002
vn 0.000000 1.000000 -0.000002
vn 0.000000 1.000000 -0.000002
vn 0.000000 1.000000 -0.000002
vn 0.000000 1.000000 0.000000
vn 0.000000 1.000000 0.000000
vn 0.000000 1.000000 0.000000
vn 0.000000 1.000000 0.000000
vn 0.000000 1.000000 0.000000
vn 0.000000 1.000000 0.000000
vn 0.000000 1.000000 0.000000
vn 0.000000 1.000000 0.000000
vn 0.000000 1.000000 0.000002
vn 0.000000 1.000000 0.000002
vn 0.000000 1.000000 0.000002
vn 0.000000 1.000000 0.000002
s 1
g EgressPipe
usemtl initialShadingGroup
f 1/1/1 2/2/2 44/46/3 45/48/4
f 2/2/2 3/3/5 43/45/6 44/46/3
f 3/3/5 4/4/7 42/44/8 43/45/6
f 4/4/7 5/5/9 41/43/10 42/44/8
f 5/5/9 6/6/11 40/42/12 41/43/10
f 6/6/11 7/7/13 39/41/14 40/42/12
f 7/7/13 8/8/15 38/40/16 39/41/14
f 8/8/15 9/9/17 37/39/18 38/40/16
f 9/9/17 10/10/19 36/38/20 37/39/18
f 10/10/19 11/11/21 35/37/22 36/38/20
f 11/11/21 12/12/23 34/36/24 35/37/22
f 12/12/23 13/13/25 33/35/26 34/36/24
f 13/13/25 14/14/27 48/51/28 33/35/26
f 14/14/27 15/15/29 47/50/30 48/51/28
f 15/15/29 16/16/31 46/49/32 47/50/30
f 16/16/31 1/17/1 45/47/4 46/49/32
f 34/36/24 33/35/26 49/52/33 50/53/34
f 35/37/22 34/36/24 50/53/34 51/54/35
f 36/38/20 35/37/22 51/54/35 52/55/36
f 37/39/18 36/38/20 52/55/36 53/56/37
f 38/40/16 37/39/18 53/56/37 54/57/38
f 39/41/14 38/40/16 54/57/38 55/58/39
f 40/42/12 39/41/14 55/58/39 56/59/40
f 41/43/10 40/42/12 56/59/40 57/60/41
f 42/44/8 41/43/10 57/60/41 58/61/42
f 43/45/6 42/44/8 58/61/42 59/62/43
f 44/46/3 43/45/6 59/62/43 60/63/44
f 45/48/4 44/46/3 60/63/44 61/65/45
f 46/49/32 45/47/4 61/64/45 62/66/46
f 47/50/30 46/49/32 62/66/46 63/67/47
f 48/51/28 47/50/30 63/67/47 64/68/48
f 33/35/26 48/51/28 64/68/48 49/52/33
f 50/53/34 49/52/33 29/30/49 28/29/50
f 51/54/35 50/53/34 28/29/50 27/28/51
f 52/55/36 51/54/35 27/28/51 26/27/52
f 53/56/37 52/55/36 26/27/52 25/26/53
f 54/57/38 53/56/37 25/26/53 24/25/54
f 55/58/39 54/57/38 24/25/54 23/24/55
f 56/59/40 55/58/39 23/24/55 22/23/56
f 57/60/41 56/59/40 22/23/56 21/22/57
f 58/61/42 57/60/41 21/22/57 20/21/58
f 59/62/43 58/61/42 20/21/58 19/20/59
f 60/63/44 59/62/43 19/20/59 18/19/60
f 61/65/45 60/63/44 18/19/60 17/18/61
f 62/66/46 61/64/45 17/34/61 32/33/62
f 63/67/47 62/66/46 32/33/62 31/32/63
f 64/68/48 63/67/47 31/32/63 30/31/64
f 49/52/33 64/68/48 30/31/64 29/30/49
s 2
f 2/69/65 1/70/66 65/71/67 66/72/68
f 3/73/69 2/74/65 66/75/68 67/76/70
f 4/77/71 3/78/69 67/79/70 68/80/72
f 5/81/73 4/82/71 68/83/72 69/84/74
f 6/85/75 5/86/73 69/87/74 70/88/76
f 7/89/77 6/90/75 70/91/76 71/92/78
f 8/93/79 7/94/77 71/95/78 72/96/80
f 9/97/81 8/98/79 72/99/80 73/100/82
f 10/101/83 9/102/81 73/103/82 74/104/84
f 11/105/85 10/106/83 74/107/84 75/108/86
f 12/109/87 11/110/85 75/111/86 76/112/88
f 13/113/89 12/114/87 76/115/88 77/116/90
f 14/117/91 13/118/89 77/119/90 78/120/92
f 15/121/93 14/122/91 78/123/92 79/124/94
f 16/125/95 15/126/93 79/127/94 80/128/96
f 1/129/66 16/130/95 80/131/96 65/132/67
s 3
f 66/133/97 65/134/98 81/135/99 82/136/100
f 67/137/101 66/138/97 82/139/100 83/140/102
f 68/141/103 67/142/101 83/143/102 84/144/104
f 69/145/105 68/146/103 84/147/104 85/148/106
f 70/149/107 69/150/105 85/151/106 86/152/108
f 71/153/109 70/154/107 86/155/108 87/156/110
f 72/157/111 71/158/109 87/159/110 88/160/112
f 73/161/113 72/162/111 88/163/112 89/164/114
f 74/165/115 73/166/113 89/167/114 90/168/116
f 75/169/117 74/170/115 90/171/116 91/172/118
f 76/173/119 75/174/117 91/175/118 92/176/120
f 77/177/121 76/178/119 92/179/120 93/180/122
f 78/181/123 77/182/121 93/183/122 94/184/124
f 79/185/125 78/186/123 94/187/124 95/188/126
f 80/189/127 79/190/125 95/191/126 96/192/128
f 65/193/98 80/194/127 96/195/128 81/196/99
s off
f 18/19/129 19/20/130 83/140/131 82/139/132
f 19/20/133 20/21/134 84/144/135 83/143/136
f 20/21/137 21/22/138 85/148/139 84/147/140
f 21/22/141 22/23/142 86/152/143 85/151/144
f 22/23/145 23/24/146 87/156/147 86/155/148
f 23/24/149 24/25/150 88/160/151 87/159/152
f 24/25/153 25/26/154 89/164/155 88/163/156
f 25/26/157 26/27/158 90/168/159 89/167/160
f 26/27/161 27/28/162 91/172/163 90/171/164
f 27/28/165 28/29/166 92/176/167 91/175/168
f 28/29/169 29/30/170 93/180/171 92/179/172
f 29/30/173 30/31/174 94/184/175 93/183/176
f 30/31/177 31/32/178 95/188/179 94/187/180
f 31/32/181 32/33/182 96/192/183 95/191/184
f 32/33/185 17/34/186 81/196/187 96/195/188
f 17/18/189 18/19/190 82/136/191 81/135/192
